<svg xmlns="http://www.w3.org/2000/svg" viewBox="0 0 800 500" width="800" height="500">
  <!-- Dashboard background -->
  <rect width="800" height="500" fill="#f8fafc" rx="10" />
  
  <!-- Dashboard header -->
  <rect x="0" y="0" width="800" height="60" fill="#ffffff" />
  <rect x="20" y="15" width="120" height="30" fill="#2563eb" rx="5" />
  
  <!-- Left sidebar -->
  <rect x="0" y="60" width="200" height="440" fill="#ffffff" />
  
  <!-- Sidebar menu items -->
  <rect x="20" y="100" width="160" height="40" fill="#eff6ff" rx="5" />
  <rect x="30" y="115" width="20" height="10" fill="#3b82f6" />
  <rect x="60" y="115" width="100" height="10" fill="#3b82f6" />
  
  <rect x="20" y="150" width="160" height="40" fill="#f8fafc" rx="5" />
  <rect x="30" y="165" width="20" height="10" fill="#64748b" />
  <rect x="60" y="165" width="80" height="10" fill="#64748b" />
  
  <rect x="20" y="200" width="160" height="40" fill="#f8fafc" rx="5" />
  <rect x="30" y="215" width="20" height="10" fill="#64748b" />
  <rect x="60" y="215" width="90" height="10" fill="#64748b" />
  
  <rect x="20" y="250" width="160" height="40" fill="#f8fafc" rx="5" />
  <rect x="30" y="265" width="20" height="10" fill="#64748b" />
  <rect x="60" y="265" width="70" height="10" fill="#64748b" />
  
  <!-- Main content area -->
  <rect x="220" y="80" width="560" height="40" fill="#ffffff" rx="5" />
  <rect x="240" y="95" width="200" height="15" fill="#1e293b" />
  
  <!-- Stats cards -->
  <rect x="220" y="140" width="175" height="100" fill="#ffffff" rx="5" stroke="#e2e8f0" stroke-width="1" />
  <rect x="235" y="155" width="100" height="15" fill="#64748b" />
  <rect x="235" y="180" width="60" height="25" fill="#2563eb" />
  <rect x="235" y="215" width="80" height="10" fill="#94a3b8" />
  
  <rect x="410" y="140" width="175" height="100" fill="#ffffff" rx="5" stroke="#e2e8f0" stroke-width="1" />
  <rect x="425" y="155" width="100" height="15" fill="#64748b" />
  <rect x="425" y="180" width="80" height="25" fill="#10b981" />
  <rect x="425" y="215" width="80" height="10" fill="#94a3b8" />
  
  <rect x="600" y="140" width="180" height="100" fill="#ffffff" rx="5" stroke="#e2e8f0" stroke-width="1" />
  <rect x="615" y="155" width="100" height="15" fill="#64748b" />
  <rect x="615" y="180" width="50" height="25" fill="#f59e0b" />
  <rect x="615" y="215" width="80" height="10" fill="#94a3b8" />
  
  <!-- Table/List -->
  <rect x="220" y="260" width="560" height="220" fill="#ffffff" rx="5" stroke="#e2e8f0" stroke-width="1" />
  <rect x="240" y="280" width="150" height="15" fill="#1e293b" />
  
  <!-- Table header -->
  <rect x="240" y="310" width="520" height="30" fill="#f8fafc" />
  <rect x="250" y="320" width="80" height="10" fill="#64748b" />
  <rect x="350" y="320" width="80" height="10" fill="#64748b" />
  <rect x="450" y="320" width="80" height="10" fill="#64748b" />
  <rect x="550" y="320" width="80" height="10" fill="#64748b" />
  <rect x="650" y="320" width="80" height="10" fill="#64748b" />
  
  <!-- Table rows -->
  <line x1="240" y1="340" x2="760" y2="340" stroke="#e2e8f0" stroke-width="1" />
  <rect x="250" y="350" width="90" height="10" fill="#1e293b" />
  <rect x="350" y="350" width="60" height="10" fill="#64748b" />
  <circle cx="460" cy="355" r="5" fill="#10b981" />
  <rect x="550" y="350" width="40" height="10" fill="#64748b" />
  <rect x="650" y="350" width="30" height="10" fill="#3b82f6" />
  
  <line x1="240" y1="370" x2="760" y2="370" stroke="#e2e8f0" stroke-width="1" />
  <rect x="250" y="380" width="80" height="10" fill="#1e293b" />
  <rect x="350" y="380" width="70" height="10" fill="#64748b" />
  <circle cx="460" cy="385" r="5" fill="#f59e0b" />
  <rect x="550" y="380" width="40" height="10" fill="#64748b" />
  <rect x="650" y="380" width="30" height="10" fill="#3b82f6" />
  
  <line x1="240" y1="400" x2="760" y2="400" stroke="#e2e8f0" stroke-width="1" />
  <rect x="250" y="410" width="85" height="10" fill="#1e293b" />
  <rect x="350" y="410" width="65" height="10" fill="#64748b" />
  <circle cx="460" cy="415" r="5" fill="#ef4444" />
  <rect x="550" y="410" width="40" height="10" fill="#64748b" />
  <rect x="650" y="410" width="30" height="10" fill="#3b82f6" />
  
  <line x1="240" y1="430" x2="760" y2="430" stroke="#e2e8f0" stroke-width="1" />
  <rect x="250" y="440" width="75" height="10" fill="#1e293b" />
  <rect x="350" y="440" width="55" height="10" fill="#64748b" />
  <circle cx="460" cy="445" r="5" fill="#10b981" />
  <rect x="550" y="440" width="40" height="10" fill="#64748b" />
  <rect x="650" y="440" width="30" height="10" fill="#3b82f6" />
</svg>
