<svg xmlns="http://www.w3.org/2000/svg" viewBox="0 0 500 300" width="500" height="300">
  <!-- Smart Follow-ups Feature -->
  <rect width="500" height="300" fill="#f8fafc" rx="8" />
  
  <!-- Calendar View -->
  <rect x="20" y="20" width="200" height="260" fill="#ffffff" stroke="#e2e8f0" stroke-width="1" rx="6" />
  <rect x="35" y="35" width="120" height="15" fill="#1e293b" />
  
  <!-- Calendar Header -->
  <rect x="35" y="65" width="170" height="25" fill="#f8fafc" rx="4" />
  <rect x="45" y="73" width="20" height="10" fill="#64748b" />
  <rect x="85" y="73" width="20" height="10" fill="#64748b" />
  <rect x="125" y="73" width="20" height="10" fill="#64748b" />
  <rect x="165" y="73" width="20" height="10" fill="#64748b" />
  
  <!-- Calendar Days -->
  <rect x="35" y="100" width="24" height="24" fill="#ffffff" stroke="#e2e8f0" stroke-width="1" />
  <rect x="59" y="100" width="24" height="24" fill="#ffffff" stroke="#e2e8f0" stroke-width="1" />
  <rect x="83" y="100" width="24" height="24" fill="#ffffff" stroke="#e2e8f0" stroke-width="1" />
  <rect x="107" y="100" width="24" height="24" fill="#ffffff" stroke="#e2e8f0" stroke-width="1" />
  <rect x="131" y="100" width="24" height="24" fill="#ffffff" stroke="#e2e8f0" stroke-width="1" />
  <rect x="155" y="100" width="24" height="24" fill="#ffffff" stroke="#e2e8f0" stroke-width="1" />
  <rect x="179" y="100" width="24" height="24" fill="#ffffff" stroke="#e2e8f0" stroke-width="1" />
  
  <!-- Row 2 -->
  <rect x="35" y="124" width="24" height="24" fill="#ffffff" stroke="#e2e8f0" stroke-width="1" />
  <rect x="59" y="124" width="24" height="24" fill="#ffffff" stroke="#e2e8f0" stroke-width="1" />
  <rect x="83" y="124" width="24" height="24" fill="#ffffff" stroke="#e2e8f0" stroke-width="1" />
  <rect x="107" y="124" width="24" height="24" fill="#3b82f6" stroke="#1d4ed8" stroke-width="1" />
  <text x="117" y="139" font-size="10" text-anchor="middle" fill="white">12</text>
  <rect x="131" y="124" width="24" height="24" fill="#ffffff" stroke="#e2e8f0" stroke-width="1" />
  <rect x="155" y="124" width="24" height="24" fill="#ffffff" stroke="#e2e8f0" stroke-width="1" />
  <rect x="179" y="124" width="24" height="24" fill="#ffffff" stroke="#e2e8f0" stroke-width="1" />
  
  <!-- Row 3 -->
  <rect x="35" y="148" width="24" height="24" fill="#ffffff" stroke="#e2e8f0" stroke-width="1" />
  <rect x="59" y="148" width="24" height="24" fill="#ffffff" stroke="#e2e8f0" stroke-width="1" />
  <rect x="83" y="148" width="24" height="24" fill="#f59e0b" stroke="#b45309" stroke-width="1" />
  <text x="93" y="163" font-size="10" text-anchor="middle" fill="white">17</text>
  <rect x="107" y="148" width="24" height="24" fill="#ffffff" stroke="#e2e8f0" stroke-width="1" />
  <rect x="131" y="148" width="24" height="24" fill="#ffffff" stroke="#e2e8f0" stroke-width="1" />
  <rect x="155" y="148" width="24" height="24" fill="#ffffff" stroke="#e2e8f0" stroke-width="1" />
  <rect x="179" y="148" width="24" height="24" fill="#ef4444" stroke="#b91c1c" stroke-width="1" />
  <text x="189" y="163" font-size="10" text-anchor="middle" fill="white">21</text>
  
  <!-- Row 4 -->
  <rect x="35" y="172" width="24" height="24" fill="#ffffff" stroke="#e2e8f0" stroke-width="1" />
  <rect x="59" y="172" width="24" height="24" fill="#ffffff" stroke="#e2e8f0" stroke-width="1" />
  <rect x="83" y="172" width="24" height="24" fill="#ffffff" stroke="#e2e8f0" stroke-width="1" />
  <rect x="107" y="172" width="24" height="24" fill="#ffffff" stroke="#e2e8f0" stroke-width="1" />
  <rect x="131" y="172" width="24" height="24" fill="#22c55e" stroke="#16a34a" stroke-width="1" />
  <text x="141" y="187" font-size="10" text-anchor="middle" fill="white">26</text>
  <rect x="155" y="172" width="24" height="24" fill="#ffffff" stroke="#e2e8f0" stroke-width="1" />
  <rect x="179" y="172" width="24" height="24" fill="#ffffff" stroke="#e2e8f0" stroke-width="1" />
  
  <!-- Row 5 -->
  <rect x="35" y="196" width="24" height="24" fill="#ffffff" stroke="#e2e8f0" stroke-width="1" />
  <rect x="59" y="196" width="24" height="24" fill="#ffffff" stroke="#e2e8f0" stroke-width="1" />
  <rect x="83" y="196" width="24" height="24" fill="#ffffff" stroke="#e2e8f0" stroke-width="1" />
  <rect x="107" y="196" width="24" height="24" fill="#ffffff" stroke="#e2e8f0" stroke-width="1" />
  <rect x="131" y="196" width="24" height="24" fill="#ffffff" stroke="#e2e8f0" stroke-width="1" />
  <rect x="155" y="196" width="24" height="24" fill="#ffffff" stroke="#e2e8f0" stroke-width="1" />
  <rect x="179" y="196" width="24" height="24" fill="#ffffff" stroke="#e2e8f0" stroke-width="1" />
  
  <!-- Task List -->
  <rect x="240" y="20" width="240" height="260" fill="#ffffff" stroke="#e2e8f0" stroke-width="1" rx="6" />
  <rect x="255" y="35" width="120" height="15" fill="#1e293b" />
  
  <!-- Task 1 -->
  <rect x="255" y="65" width="210" height="40" fill="#ffffff" stroke="#e2e8f0" stroke-width="1" rx="4" />
  <rect x="270" y="77" width="140" height="8" fill="#1e293b" />
  <rect x="270" y="90" width="100" height="5" fill="#64748b" />
  <rect x="410" y="77" width="40" height="18" fill="#eff6ff" stroke="#bfdbfe" stroke-width="1" rx="4" />
  <rect x="420" y="83" width="20" height="6" fill="#3b82f6" />
  
  <!-- Task 2 -->
  <rect x="255" y="115" width="210" height="40" fill="#ffffff" stroke="#e2e8f0" stroke-width="1" rx="4" />
  <rect x="270" y="127" width="120" height="8" fill="#1e293b" />
  <rect x="270" y="140" width="90" height="5" fill="#64748b" />
  <rect x="410" y="127" width="40" height="18" fill="#fef3c7" stroke="#fde68a" stroke-width="1" rx="4" />
  <rect x="420" y="133" width="20" height="6" fill="#f59e0b" />
  
  <!-- Task 3 -->
  <rect x="255" y="165" width="210" height="40" fill="#ffffff" stroke="#e2e8f0" stroke-width="1" rx="4" />
  <rect x="270" y="177" width="130" height="8" fill="#1e293b" />
  <rect x="270" y="190" width="85" height="5" fill="#64748b" />
  <rect x="410" y="177" width="40" height="18" fill="#fee2e2" stroke="#fecaca" stroke-width="1" rx="4" />
  <rect x="420" y="183" width="20" height="6" fill="#ef4444" />
  
  <!-- Task 4 -->
  <rect x="255" y="215" width="210" height="40" fill="#ffffff" stroke="#e2e8f0" stroke-width="1" rx="4" />
  <rect x="270" y="227" width="110" height="8" fill="#1e293b" />
  <rect x="270" y="240" width="95" height="5" fill="#64748b" />
  <rect x="410" y="227" width="40" height="18" fill="#dcfce7" stroke="#bbf7d0" stroke-width="1" rx="4" />
  <rect x="420" y="233" width="20" height="6" fill="#22c55e" />
</svg>
