<svg xmlns="http://www.w3.org/2000/svg" viewBox="0 0 500 300" width="500" height="300">
  <!-- Team Collaboration Feature -->
  <rect width="500" height="300" fill="#f8fafc" rx="8" />
  
  <!-- User List -->
  <rect x="20" y="20" width="180" height="260" fill="#ffffff" stroke="#e2e8f0" stroke-width="1" rx="6" />
  <rect x="35" y="35" width="120" height="15" fill="#1e293b" />
  
  <!-- User 1 -->
  <rect x="35" y="65" width="150" height="40" fill="#ffffff" stroke="#e2e8f0" stroke-width="1" rx="4" />
  <circle cx="55" cy="85" r="10" fill="#3b82f6" />
  <rect x="75" y="75" width="70" height="8" fill="#1e293b" />
  <rect x="75" y="88" width="40" height="5" fill="#64748b" />
  <rect x="150" y="80" width="25" height="10" fill="#22c55e" rx="5" />
  
  <!-- User 2 -->
  <rect x="35" y="115" width="150" height="40" fill="#ffffff" stroke="#e2e8f0" stroke-width="1" rx="4" />
  <circle cx="55" cy="135" r="10" fill="#ef4444" />
  <rect x="75" y="125" width="60" height="8" fill="#1e293b" />
  <rect x="75" y="138" width="40" height="5" fill="#64748b" />
  <rect x="150" y="130" width="25" height="10" fill="#f59e0b" rx="5" />
  
  <!-- User 3 -->
  <rect x="35" y="165" width="150" height="40" fill="#ffffff" stroke="#e2e8f0" stroke-width="1" rx="4" />
  <circle cx="55" cy="185" r="10" fill="#a855f7" />
  <rect x="75" y="175" width="65" height="8" fill="#1e293b" />
  <rect x="75" y="188" width="40" height="5" fill="#64748b" />
  <rect x="150" y="180" width="25" height="10" fill="#22c55e" rx="5" />
  
  <!-- Company Structure -->
  <rect x="220" y="20" width="260" height="260" fill="#ffffff" stroke="#e2e8f0" stroke-width="1" rx="6" />
  <rect x="235" y="35" width="150" height="15" fill="#1e293b" />
  
  <!-- Org Chart -->
  <circle cx="350" cy="85" r="20" fill="#3b82f6" stroke="#1d4ed8" stroke-width="1" />
  <rect x="340" y="80" width="20" height="10" fill="#ffffff" />
  
  <line x1="350" y1="105" x2="350" y2="120" stroke="#64748b" stroke-width="1" />
  <line x1="300" y1="120" x2="400" y2="120" stroke="#64748b" stroke-width="1" />
  <line x1="300" y1="120" x2="300" y2="135" stroke="#64748b" stroke-width="1" />
  <line x1="350" y1="120" x2="350" y2="135" stroke="#64748b" stroke-width="1" />
  <line x1="400" y1="120" x2="400" y2="135" stroke="#64748b" stroke-width="1" />
  
  <circle cx="300" cy="150" r="15" fill="#ef4444" stroke="#b91c1c" stroke-width="1" />
  <rect x="293" y="147" width="14" height="6" fill="#ffffff" />
  
  <circle cx="350" cy="150" r="15" fill="#f59e0b" stroke="#b45309" stroke-width="1" />
  <rect x="343" y="147" width="14" height="6" fill="#ffffff" />
  
  <circle cx="400" cy="150" r="15" fill="#a855f7" stroke="#7e22ce" stroke-width="1" />
  <rect x="393" y="147" width="14" height="6" fill="#ffffff" />
  
  <line x1="300" y1="165" x2="300" y2="180" stroke="#64748b" stroke-width="1" />
  <line x1="280" y1="180" x2="320" y2="180" stroke="#64748b" stroke-width="1" />
  <line x1="280" y1="180" x2="280" y2="195" stroke="#64748b" stroke-width="1" />
  <line x1="320" y1="180" x2="320" y2="195" stroke="#64748b" stroke-width="1" />
  
  <circle cx="280" cy="210" r="12" fill="#22c55e" stroke="#16a34a" stroke-width="1" />
  <rect x="274" y="207" width="12" height="6" fill="#ffffff" />
  
  <circle cx="320" cy="210" r="12" fill="#22c55e" stroke="#16a34a" stroke-width="1" />
  <rect x="314" y="207" width="12" height="6" fill="#ffffff" />
</svg>
